<?xml version="1.0" encoding="UTF-8" standalone="no"?>
<svg width="26px" height="16px" viewBox="0 0 26 16" version="1.1" xmlns="http://www.w3.org/2000/svg" xmlns:xlink="http://www.w3.org/1999/xlink" xmlns:sketch="http://www.bohemiancoding.com/sketch/ns">
    <!-- Generator: Sketch 3.5.1 (25234) - http://www.bohemiancoding.com/sketch -->
    <title>social behance</title>
    <desc>Created with Sketch.</desc>
    <defs></defs>
    <g id="Home" stroke="none" stroke-width="1" fill="none" fill-rule="evenodd" sketch:type="MSPage">
        <g id="Desktop-HD" sketch:type="MSArtboardGroup" transform="translate(-235.000000, -102.000000)" fill="#0878FB">
            <g id="top" sketch:type="MSLayerGroup" transform="translate(28.000000, 28.000000)">
                <g id="profile-small" transform="translate(0.000000, 52.000000)" sketch:type="MSShapeGroup">
                    <g id="social" transform="translate(78.000000, 22.000000)">
                        <g id="social-behance" transform="translate(129.000000, 0.000000)">
                            <path d="M10.3312,7.4176 C10.3312,7.4176 12.7528,7.2336 12.7528,4.336 C12.7528,1.4408 11.1104,0.0136 8.6,0.0136 L0,1.77635684e-15 L0,16 L8.8,16 C8.8,16 13.2,16.1392 13.2,11.2 C13.2,11.2 13.5232,7.4176 10.3312,7.4176 L10.3312,7.4176 Z M3.2,2.4 L7.6,2.4 C7.6,2.4 9.1056,2.4248 9.1056,4.3768 C9.1056,6.4 7.6,6.4 7.6,6.4 L3.2,6.4 L3.2,2.4 L3.2,2.4 Z M8,13.6 L3.2,13.6 L3.2,8.8 L8,8.8 C8,8.8 10.4,8.8248 10.4,11.2 C10.4,13.5752 8.3456,13.6 8,13.6 L8,13.6 Z" id="Shape"></path>
                            <path d="M20,4 C13.9896,4 14,10 14,10 C14,10 13.6,16 20,16 C20,16 25.6,16 25.6,11.2 L22.4,11.2 C22.4,11.2 22.4,13.6 20,13.6 C20,13.6 17.6,13.6 17.6,10.4 L25.6,10.4 C25.6,8.8 25.6,4 20,4 L20,4 Z M17.6,8.8 C17.6,8.8 17.5472,6.4 20,6.4 C22.452,6.4 22.4,8.8 22.4,8.8 L17.6,8.8 L17.6,8.8 Z" id="Shape"></path>
                            <rect id="Rectangle-path" x="16.8" y="1.6" width="6.4" height="1.6"></rect>
                        </g>
                    </g>
                </g>
            </g>
        </g>
    </g>
</svg>