<?xml version="1.0" encoding="UTF-8" standalone="no"?>
<svg width="24px" height="24px" viewBox="0 0 24 24" version="1.1" xmlns="http://www.w3.org/2000/svg" xmlns:xlink="http://www.w3.org/1999/xlink" xmlns:sketch="http://www.bohemiancoding.com/sketch/ns">
    <!-- Generator: Sketch 3.4.4 (17249) - http://www.bohemiancoding.com/sketch -->
    <title>Shape</title>
    <desc>Created with Sketch.</desc>
    <defs></defs>
    <g id="Page-1" stroke="none" stroke-width="1" fill="none" fill-rule="evenodd" sketch:type="MSPage">
        <g id="Home" sketch:type="MSArtboardGroup" transform="translate(-113.000000, -9.000000)" fill="#E74C3C">
            <g id="1452622814_circle-close" sketch:type="MSLayerGroup" transform="translate(113.000000, 9.000000)">
                <g id="Layer_1" sketch:type="MSShapeGroup">
                    <path d="M16.8976471,6.98590099 C16.7138824,6.80007921 16.416,6.80007921 16.2322353,6.98590099 L12.0075294,11.2529109 L7.78282353,6.98590099 C7.59905882,6.80007921 7.30117647,6.80007921 7.11741176,6.98590099 C6.93364706,7.17148515 6.93364706,7.47231683 7.11741176,7.65790099 L11.3421176,11.9249109 L7.11741176,16.1919208 C6.93364706,16.3772673 6.93364706,16.6783366 7.11741176,16.8639208 C7.20941176,16.9565941 7.32964706,17.0029307 7.45011765,17.0029307 C7.57058824,17.0029307 7.69082353,16.9565941 7.78282353,16.8639208 L12.0075294,12.5971485 L16.2322353,16.8639208 C16.3242353,16.9565941 16.4444706,17.0029307 16.5649412,17.0029307 C16.6854118,17.0029307 16.8056471,16.9565941 16.8976471,16.8639208 C17.0814118,16.6783366 17.0814118,16.3772673 16.8976471,16.1919208 L12.6729412,11.9249109 L16.8976471,7.65790099 C17.0816471,7.47255446 17.0816471,7.17148515 16.8976471,6.98590099 L16.8976471,6.98590099 Z M12.0075294,0.0128316832 C5.50352941,0.0128316832 0.212470588,5.35627723 0.212470588,11.924198 C0.212941176,18.4928317 5.50447059,23.8365149 12.0084706,23.8365149 C18.5117647,23.8365149 23.8025882,18.4925941 23.8025882,11.924198 C23.8025882,5.35627723 18.5115294,0.0128316832 12.0075294,0.0128316832 L12.0075294,0.0128316832 Z M12.0084706,22.8862574 L12.008,22.8862574 C6.02329412,22.8862574 1.15411765,17.9686337 1.15364706,11.9244356 C1.15364706,5.88047525 6.02258824,0.963564356 12.0075294,0.963564356 C17.9924706,0.963564356 22.8614118,5.88071287 22.8614118,11.9244356 C22.8614118,17.968396 17.9929412,22.8862574 12.0084706,22.8862574 L12.0084706,22.8862574 Z" id="Shape"></path>
                </g>
            </g>
        </g>
    </g>
</svg>