<?xml version="1.0" encoding="UTF-8" standalone="no"?>
<svg width="25px" height="24px" viewBox="0 0 25 24" version="1.1" xmlns="http://www.w3.org/2000/svg" xmlns:xlink="http://www.w3.org/1999/xlink" xmlns:sketch="http://www.bohemiancoding.com/sketch/ns">
    <!-- Generator: Sketch 3.5.1 (25234) - http://www.bohemiancoding.com/sketch -->
    <title>Shape</title>
    <desc>Created with Sketch.</desc>
    <defs></defs>
    <g id="Home" stroke="none" stroke-width="1" fill="none" fill-rule="evenodd" sketch:type="MSPage">
        <g id="Mobile-Portrait" sketch:type="MSArtboardGroup" transform="translate(-227.000000, -8.000000)" fill="#E74C3C">
            <g id="close" sketch:type="MSLayerGroup" transform="translate(227.000000, 8.000000)">
                <path d="M17.0649505,6.98590099 C16.8793663,6.80007921 16.5785347,6.80007921 16.3929505,6.98590099 L12.1264158,11.2529109 L7.85988119,6.98590099 C7.67429703,6.80007921 7.37346535,6.80007921 7.18788119,6.98590099 C7.00229703,7.17148515 7.00229703,7.47231683 7.18788119,7.65790099 L11.4544158,11.9249109 L7.18788119,16.1919208 C7.00229703,16.3772673 7.00229703,16.6783366 7.18788119,16.8639208 C7.28079208,16.9565941 7.40221782,17.0029307 7.52388119,17.0029307 C7.64554455,17.0029307 7.7669703,16.9565941 7.85988119,16.8639208 L12.1264158,12.5971485 L16.3929505,16.8639208 C16.4858614,16.9565941 16.6072871,17.0029307 16.7289505,17.0029307 C16.8506139,17.0029307 16.9720396,16.9565941 17.0649505,16.8639208 C17.2505347,16.6783366 17.2505347,16.3772673 17.0649505,16.1919208 L12.7984158,11.9249109 L17.0649505,7.65790099 C17.2507723,7.47255446 17.2507723,7.17148515 17.0649505,6.98590099 L17.0649505,6.98590099 Z M12.1264158,0.0128316832 C5.5580198,0.0128316832 0.214574257,5.35627723 0.214574257,11.924198 C0.215049505,18.4928317 5.5589703,23.8365149 12.1273663,23.8365149 C18.6950495,23.8365149 24.0382574,18.4925941 24.0382574,11.924198 C24.0382574,5.35627723 18.6948119,0.0128316832 12.1264158,0.0128316832 L12.1264158,0.0128316832 Z M12.1273663,22.8862574 L12.1268911,22.8862574 C6.08293069,22.8862574 1.16554455,17.9686337 1.16506931,11.9244356 C1.16506931,5.88047525 6.08221782,0.963564356 12.1264158,0.963564356 C18.1706139,0.963564356 23.0877624,5.88071287 23.0877624,11.9244356 C23.0877624,17.968396 18.1710891,22.8862574 12.1273663,22.8862574 L12.1273663,22.8862574 Z" id="Shape" sketch:type="MSShapeGroup"></path>
            </g>
        </g>
    </g>
</svg>