<?xml version="1.0" encoding="UTF-8" standalone="no"?>
<svg width="10px" height="16px" viewBox="0 0 10 16" version="1.1" xmlns="http://www.w3.org/2000/svg" xmlns:xlink="http://www.w3.org/1999/xlink" xmlns:sketch="http://www.bohemiancoding.com/sketch/ns">
    <!-- Generator: Sketch 3.5.1 (25234) - http://www.bohemiancoding.com/sketch -->
    <title>social facebook</title>
    <desc>Created with Sketch.</desc>
    <defs></defs>
    <g id="Home" stroke="none" stroke-width="1" fill="none" fill-rule="evenodd" sketch:type="MSPage">
        <g id="Desktop-HD" sketch:type="MSArtboardGroup" transform="translate(-142.000000, -102.000000)" fill="#3B5998">
            <g id="top" sketch:type="MSLayerGroup" transform="translate(28.000000, 28.000000)">
                <g id="profile-small" transform="translate(0.000000, 52.000000)" sketch:type="MSShapeGroup">
                    <g id="social" transform="translate(78.000000, 22.000000)">
                        <g id="social-facebook" transform="translate(36.266667, 0.000000)">
                            <path d="M6,6 L9,6 L9,9 L6,9 L6,16 L3,16 L3,9 L0,9 L0,6 L3,6 L3,4.745 C3,3.556 3.374,2.054 4.118,1.233 C4.862,0.41 5.791,0 6.904,0 L9,0 L9,3 L6.9,3 C6.402,3 6,3.402 6,3.899 L6,6 L6,6 Z" id="Shape"></path>
                        </g>
                    </g>
                </g>
            </g>
        </g>
    </g>
</svg>