<?xml version="1.0" encoding="UTF-8" standalone="no"?>
<svg width="19px" height="16px" viewBox="0 0 19 16" version="1.1" xmlns="http://www.w3.org/2000/svg" xmlns:xlink="http://www.w3.org/1999/xlink" xmlns:sketch="http://www.bohemiancoding.com/sketch/ns">
    <!-- Generator: Sketch 3.5.1 (25234) - http://www.bohemiancoding.com/sketch -->
    <title>social github</title>
    <desc>Created with Sketch.</desc>
    <defs></defs>
    <g id="Home" stroke="none" stroke-width="1" fill="none" fill-rule="evenodd" sketch:type="MSPage">
        <g id="Desktop-HD" sketch:type="MSArtboardGroup" transform="translate(-199.000000, -102.000000)" fill="#34495E">
            <g id="top" sketch:type="MSLayerGroup" transform="translate(28.000000, 28.000000)">
                <g id="profile-small" transform="translate(0.000000, 52.000000)" sketch:type="MSShapeGroup">
                    <g id="social" transform="translate(78.000000, 22.000000)">
                        <g id="social-github" transform="translate(93.266667, 0.000000)">
                            <path d="M12.58,9.29733333 C12.9386667,9.29733333 13.236,9.47466667 13.4946667,9.82533333 C13.7506667,10.1786667 13.8866667,10.6093333 13.8866667,11.1253333 C13.8866667,11.6386667 13.7506667,12.0733333 13.4946667,12.4226667 C13.2373333,12.776 12.9386667,12.9506667 12.58,12.9506667 C12.2093333,12.9506667 11.884,12.776 11.6266667,12.4226667 C11.3706667,12.0733333 11.2346667,11.6386667 11.2346667,11.1253333 C11.2346667,10.6093333 11.3706667,10.1786667 11.6266667,9.82533333 C11.8826667,9.47333333 12.208,9.29733333 12.58,9.29733333 M17.1666667,4.552 C18.1613333,5.63333333 18.6666667,6.94533333 18.6666667,8.48933333 C18.6666667,9.48666667 18.552,10.3866667 18.3213333,11.1866667 C18.088,11.9826667 17.796,12.632 17.4493333,13.132 C17.0973333,13.6333333 16.6653333,14.072 16.1506667,14.4506667 C15.636,14.832 15.1626667,15.1066667 14.7306667,15.2813333 C14.2973333,15.4573333 13.804,15.592 13.2493333,15.6893333 C12.6933333,15.784 12.2813333,15.8373333 11.992,15.8533333 L11.0786667,15.872 L10.3493333,15.892 C9.948,15.9093333 9.60266667,15.9133333 9.33333333,15.9133333 C9.064,15.9133333 8.71866667,15.9093333 8.31733333,15.892 L7.588,15.872 L6.67466667,15.8533333 C6.384,15.8373333 5.97333333,15.784 5.41733333,15.6893333 C4.85333333,15.5933333 4.36933333,15.4573333 3.936,15.2813333 C3.504,15.1066667 3.02933333,14.832 2.51733333,14.4506667 C2.00133333,14.072 1.56933333,13.6333333 1.21733333,13.132 C0.869333333,12.632 0.578666667,11.9826667 0.345333333,11.1866667 C0.114666667,10.3866667 -1.77635684e-15,9.48666667 -1.77635684e-15,8.48933333 C-1.77635684e-15,6.94533333 0.505333333,5.632 1.5,4.552 C1.39066667,4.49733333 1.38666667,3.956 1.48933333,2.92933333 C1.57333333,1.90133333 1.792,0.953333333 2.14933333,0.0866666667 C3.39466667,0.218666667 4.936,0.925333333 6.77733333,2.19466667 C7.39866667,2.036 8.24533333,1.95066667 9.33333333,1.95066667 C10.4693333,1.95066667 11.3213333,2.036 11.8906667,2.196 C12.7293333,1.62933333 13.5306667,1.168 14.2973333,0.817333333 C15.076,0.469333333 15.6373333,0.262666667 15.9893333,0.208 L16.5173333,0.088 C16.8773333,0.953333333 17.096,1.90133333 17.1786667,2.93066667 C17.28,3.956 17.276,4.49733333 17.1666667,4.552 M9.37333333,14.9786667 C11.624,14.9786667 13.312,14.7093333 14.468,14.1693333 C15.608,13.6306667 16.1906667,12.5186667 16.1906667,10.8413333 C16.1906667,9.868 15.8266667,9.05466667 15.0946667,8.404 C14.724,8.05333333 14.2773333,7.83733333 13.776,7.756 C13.276,7.67466667 12.5106667,7.67466667 11.4826667,7.756 C10.4573333,7.83866667 9.752,7.876 9.37333333,7.876 C8.86,7.876 8.30666667,7.852 7.61466667,7.79733333 C6.92133333,7.744 6.37733333,7.71066667 5.984,7.69333333 C5.592,7.68133333 5.172,7.72933333 4.70666667,7.83733333 C4.24666667,7.94666667 3.868,8.136 3.56933333,8.404 C2.87466667,9.02933333 2.516,9.84 2.516,10.8413333 C2.516,12.5186667 3.084,13.6306667 4.22266667,14.1693333 C5.356,14.7093333 7.04,14.9786667 9.292,14.9786667 L9.37333333,14.9786667 M6.128,9.29733333 C6.48533333,9.29733333 6.784,9.47466667 7.04133333,9.82533333 C7.29733333,10.1786667 7.43333333,10.6093333 7.43333333,11.1253333 C7.43333333,11.6386667 7.29733333,12.0733333 7.04133333,12.4226667 C6.78533333,12.776 6.48533333,12.9506667 6.128,12.9506667 C5.756,12.9506667 5.432,12.776 5.17333333,12.4226667 C4.91733333,12.0733333 4.78133333,11.6386667 4.78133333,11.1253333 C4.78133333,10.6093333 4.91733333,10.1786667 5.17333333,9.82533333 C5.43066667,9.47333333 5.75466667,9.29733333 6.128,9.29733333" id="Shape"></path>
                        </g>
                    </g>
                </g>
            </g>
        </g>
    </g>
</svg>