<?xml version="1.0" encoding="UTF-8" standalone="no"?>
<svg width="26px" height="26px" viewBox="0 0 26 26" version="1.1" xmlns="http://www.w3.org/2000/svg" xmlns:xlink="http://www.w3.org/1999/xlink" xmlns:sketch="http://www.bohemiancoding.com/sketch/ns">
    <!-- Generator: Sketch 3.4.4 (17249) - http://www.bohemiancoding.com/sketch -->
    <title>Shape</title>
    <desc>Created with Sketch.</desc>
    <defs></defs>
    <g id="Page-1" stroke="none" stroke-width="1" fill="none" fill-rule="evenodd" sketch:type="MSPage">
        <g id="Home" sketch:type="MSArtboardGroup" transform="translate(-340.000000, -412.000000)" fill="#517FA6">
            <g id="profile" sketch:type="MSLayerGroup" transform="translate(222.000000, 156.000000)">
                <g id="social" transform="translate(52.000000, 256.000000)" sketch:type="MSShapeGroup">
                    <g id="instagram" transform="translate(66.000000, 0.000000)">
                        <g id="Layer_1">
                            <path d="M17.0174333,9.7838 L17.0174333,9.7812 C17.2349667,9.7812 17.4529333,9.78553333 17.6709,9.78033333 C17.9508333,9.7734 18.1787667,9.53333333 18.1787667,9.25296667 L18.1787667,8.00063333 C18.1787667,7.7012 17.9417333,7.4633 17.6431667,7.46286667 C17.2267333,7.46286667 16.8103,7.46243333 16.3938667,7.46286667 C16.0957333,7.4633 15.8582667,7.70206667 15.8582667,8.0015 C15.8578333,8.41533333 15.8565333,8.82916667 15.8595667,9.243 C15.86,9.30496667 15.8717,9.3691 15.8912,9.4276 C15.9661667,9.64773333 16.1681,9.78293333 16.4151,9.78423333 C16.6157333,9.78423333 16.8168,9.7838 17.0174333,9.7838 L17.0174333,9.7838 Z M13,10.3207 C11.5336,10.3198333 10.3415,11.4998 10.3211333,12.9592667 C10.2999,14.4586 11.4998,15.6463667 12.9384667,15.6771333 C14.4352,15.7092 15.6459333,14.5132 15.6775667,13.0585 C15.7100667,11.5591667 14.5002,10.3198333 13,10.3207 L13,10.3207 Z M7.81993333,11.7502667 L7.81993333,11.7858 C7.81993333,13.7423 7.8195,15.6988 7.81993333,17.6553 C7.81993333,17.9365333 8.06346667,18.1787667 8.34513333,18.1787667 C11.4478,18.1792 14.5500333,18.1792 17.6527,18.1787667 C17.9369667,18.1787667 18.1792,17.9374 18.1792,17.6535667 C18.1796333,15.6996667 18.1792,13.7449 18.1792,11.7914333 L18.1792,11.7507 L16.9173333,11.7507 C17.0954333,12.3201 17.1500333,12.8994667 17.0802667,13.4901 C17.0105,14.0807333 16.8198333,14.6302 16.51,15.1380667 C16.2001667,15.6459333 15.7976,16.0675667 15.3057667,16.4025333 C14.0300333,17.2718 12.35,17.3480667 10.9958333,16.588 C10.3116,16.2045 9.77426667,15.6693333 9.399,14.9790333 C8.84043333,13.9507333 8.75116667,12.8708667 9.07876667,11.7502667 C8.6593,11.7502667 8.24243333,11.7502667 7.81993333,11.7502667 L7.81993333,11.7502667 Z M18.2888333,19.6105 C18.3577333,19.5992333 18.4266333,19.5892667 18.4946667,19.5745333 C19.0346,19.4597 19.4757333,19.0094667 19.5814667,18.4665 C19.5923,18.4071333 19.6009667,18.3482 19.6105,18.2892667 L19.6105,7.71073333 C19.6014,7.6531 19.5931667,7.5946 19.5823333,7.53696667 C19.4662,6.9446 18.9774,6.48483333 18.3776667,6.4025 C18.3525333,6.39946667 18.3287,6.39383333 18.304,6.3895 L7.69643333,6.3895 C7.63273333,6.4012 7.56816667,6.40986667 7.50533333,6.42416667 C6.91946667,6.55763333 6.48613333,7.0291 6.4025,7.62276667 C6.39903333,7.64746667 6.39383333,7.67216667 6.38993333,7.69686667 L6.38993333,18.304 C6.40206667,18.3707333 6.4116,18.4387667 6.42676667,18.5055 C6.55633333,19.0783667 7.04513333,19.5225333 7.6271,19.5975 C7.65483333,19.6009667 7.68343333,19.6066 7.7116,19.6105 L18.2888333,19.6105 L18.2888333,19.6105 Z M13,26 C5.82053333,26 0,20.1794667 0,13 C0,5.8201 5.82053333,0 13,0 C20.1794667,0 26,5.8201 26,13 C26,20.1794667 20.1794667,26 13,26 L13,26 Z" id="Shape"></path>
                        </g>
                    </g>
                </g>
            </g>
        </g>
    </g>
</svg>