<?xml version="1.0" encoding="UTF-8" standalone="no"?>
<svg width="17px" height="16px" viewBox="0 0 17 16" version="1.1" xmlns="http://www.w3.org/2000/svg" xmlns:xlink="http://www.w3.org/1999/xlink" xmlns:sketch="http://www.bohemiancoding.com/sketch/ns">
    <!-- Generator: Sketch 3.5.1 (25234) - http://www.bohemiancoding.com/sketch -->
    <title>social instagram</title>
    <desc>Created with Sketch.</desc>
    <defs></defs>
    <g id="Home" stroke="none" stroke-width="1" fill="none" fill-rule="evenodd" sketch:type="MSPage">
        <g id="Desktop-HD" sketch:type="MSArtboardGroup" transform="translate(-167.000000, -102.000000)" fill="#517FA4">
            <g id="top" sketch:type="MSLayerGroup" transform="translate(28.000000, 28.000000)">
                <g id="profile-small" transform="translate(0.000000, 52.000000)" sketch:type="MSShapeGroup">
                    <g id="social" transform="translate(78.000000, 22.000000)">
                        <g id="social-instagram" transform="translate(61.266667, 0.000000)">
                            <path d="M13.3333333,0 L2.66666667,0 C1.15555556,0 0,1.15555556 0,2.66666667 L0,13.3333333 C0,14.8444444 1.15555556,16 2.66666667,16 L13.3333333,16 C14.8444444,16 16,14.8444444 16,13.3333333 L16,2.66666667 C16,1.15555556 14.8444444,0 13.3333333,0 L13.3333333,0 Z M8,5.33333333 C9.51111111,5.33333333 10.6666667,6.48888889 10.6666667,8 C10.6666667,9.51111111 9.51111111,10.6666667 8,10.6666667 C6.48888889,10.6666667 5.33333333,9.51111111 5.33333333,8 C5.33333333,6.48888889 6.48888889,5.33333333 8,5.33333333 L8,5.33333333 Z M11.3777778,3.55555556 C11.3777778,2.93333333 11.9111111,2.48888889 12.4444444,2.48888889 C12.9777778,2.48888889 13.5111111,3.02222222 13.5111111,3.55555556 C13.5111111,4.08888889 13.0666667,4.62222222 12.4444444,4.62222222 C11.8222222,4.62222222 11.3777778,4.17777778 11.3777778,3.55555556 L11.3777778,3.55555556 Z M13.3333333,14.2222222 L2.66666667,14.2222222 C2.13333333,14.2222222 1.77777778,13.8666667 1.77777778,13.3333333 L1.77777778,8 L3.55555556,8 C3.55555556,10.4888889 5.51111111,12.4444444 8,12.4444444 C10.4888889,12.4444444 12.4444444,10.4888889 12.4444444,8 L14.2222222,8 L14.2222222,13.3333333 C14.2222222,13.8666667 13.8666667,14.2222222 13.3333333,14.2222222 L13.3333333,14.2222222 Z" id="Shape"></path>
                        </g>
                    </g>
                </g>
            </g>
        </g>
    </g>
</svg>