<?xml version="1.0" encoding="UTF-8" standalone="no"?>
<svg width="119px" height="35px" viewBox="0 0 119 35" version="1.1" xmlns="http://www.w3.org/2000/svg" xmlns:xlink="http://www.w3.org/1999/xlink" xmlns:sketch="http://www.bohemiancoding.com/sketch/ns">
    <!-- Generator: Sketch 3.5.2 (25235) - http://www.bohemiancoding.com/sketch -->
    <title>logo small</title>
    <desc>Created with Sketch.</desc>
    <defs></defs>
    <g id="Article" stroke="none" stroke-width="1" fill="none" fill-rule="evenodd" sketch:type="MSPage">
        <g id="Desktop" sketch:type="MSArtboardGroup" transform="translate(-29.000000, -20.000000)">
            <g id="top" sketch:type="MSLayerGroup" transform="translate(28.000000, 20.000000)">
                <g id="logo-small" transform="translate(1.000000, 0.000000)">
                    <text id="RemixCode" sketch:type="MSTextLayer" font-family="Varela Round" font-size="16" font-weight="normal" fill="#34495E">
                        <tspan x="38" y="23">RealNerdo</tspan>
                    </text>
                    <g id="logo" fill="#1ABC9C" sketch:type="MSShapeGroup">
                        <g id="Layer_1">
                            <g id="Group">
                                <path d="M17.7258065,31.7675159 C10.7483871,31.7675159 5.08064516,26.1719745 5.08064516,19.2834395 C5.08064516,12.3949045 10.7483871,6.79936306 17.7258065,6.79936306 C24.7032258,6.79936306 30.3709677,12.3949045 30.3709677,19.2834395 C30.3709677,26.1719745 24.7032258,31.7675159 17.7258065,31.7675159 L17.7258065,31.7675159 Z M17.7258065,7.91401274 C11.3806452,7.91401274 6.20967742,13.0191083 6.20967742,19.2834395 C6.20967742,25.5477707 11.3806452,30.6528662 17.7258065,30.6528662 C24.0709677,30.6528662 29.2419355,25.5477707 29.2419355,19.2834395 C29.2419355,13.0191083 24.0709677,7.91401274 17.7258065,7.91401274 L17.7258065,7.91401274 Z" id="Shape"></path>
                                <path d="M14.7903226,26.9745223 C12.983871,26.9745223 11.516129,25.5254777 11.516129,23.7420382 C11.516129,21.9585987 12.983871,20.5095541 14.7903226,20.5095541 C16.5967742,20.5095541 18.0645161,21.9585987 18.0645161,23.7420382 C18.0645161,25.5254777 16.5967742,26.9745223 14.7903226,26.9745223 L14.7903226,26.9745223 Z M14.7903226,21.4012739 C13.4806452,21.4012739 12.4193548,22.4490446 12.4193548,23.7420382 C12.4193548,25.0350318 13.4806452,26.0828025 14.7903226,26.0828025 C16.1,26.0828025 17.1612903,25.0350318 17.1612903,23.7420382 C17.1612903,22.4490446 16.1,21.4012739 14.7903226,21.4012739 L14.7903226,21.4012739 Z" id="Shape"></path>
                                <ellipse id="Oval" cx="23.5967742" cy="23.2961783" rx="1.91935484" ry="1.89490446"></ellipse>
                                <ellipse id="Oval" cx="15.4677419" cy="16.6082803" rx="1.24193548" ry="1.22611465"></ellipse>
                                <ellipse id="Oval" cx="14.7903226" cy="10.8121019" rx="0.790322581" ry="0.780254777"></ellipse>
                                <ellipse id="Oval" cx="8.46774194" cy="22.6273885" rx="0.790322581" ry="0.780254777"></ellipse>
                                <ellipse id="Oval" cx="26.5322581" cy="16.6082803" rx="0.564516129" ry="0.557324841"></ellipse>
                                <ellipse id="Oval" cx="15.3548387" cy="28.5350318" rx="0.451612903" ry="0.445859873"></ellipse>
                                <ellipse id="Oval" cx="32.1774194" cy="12.3726115" rx="1.01612903" ry="1.00318471"></ellipse>
                                <path d="M26.8935484,31.2993631 C24.2967742,31.2993631 20.5032258,29.4713376 16.3709677,26.0828025 L17.0935484,25.2356688 C22.1290323,29.3821656 26.9612903,31.2324841 28.5870968,29.6273885 C29.6483871,28.5796178 28.9258065,26.3057325 28.1129032,24.589172 L29.1290323,24.1210191 C30.5064516,27.0859873 30.5741935,29.2038217 29.3548387,30.4076433 C28.7903226,31.0095541 27.9322581,31.2993631 26.8935484,31.2993631 L26.8935484,31.2993631 Z M12.3064516,22.2707006 C9.43870968,19.2834395 7.18064516,16.1178344 5.91612903,13.3535032 C4.53870968,10.366242 4.47096774,8.15923567 5.69032258,6.97770701 C6.97741935,5.70700637 9.50645161,5.88535032 12.8258065,7.51273885 C12.916129,7.55732484 13.0064516,7.60191083 13.1193548,7.64649682 L12.6,8.62738854 C12.5096774,8.58280255 12.4193548,8.53821656 12.3290323,8.49363057 C9.57419355,7.13375796 7.40645161,6.86624204 6.50322581,7.73566879 C4.9,9.31847134 7,15.0254777 13.1419355,21.4681529 L12.3064516,22.2707006 L12.3064516,22.2707006 Z" id="Shape"></path>
                                <path d="M32.2903226,5.35031847 C30.8,5.35031847 29.5806452,4.14649682 29.5806452,2.67515924 C29.5806452,1.20382166 30.8,0 32.2903226,0 C33.7806452,0 35,1.20382166 35,2.67515924 C35,4.14649682 33.7806452,5.35031847 32.2903226,5.35031847 L32.2903226,5.35031847 Z M32.2903226,0.891719745 C31.2967742,0.891719745 30.483871,1.69426752 30.483871,2.67515924 C30.483871,3.65605096 31.2967742,4.45859873 32.2903226,4.45859873 C33.283871,4.45859873 34.0967742,3.65605096 34.0967742,2.67515924 C34.0967742,1.69426752 33.283871,0.891719745 32.2903226,0.891719745 L32.2903226,0.891719745 Z" id="Shape"></path>
                                <path d="M1.03870968,34.843949 C0.7,34.843949 0.496774194,34.7324841 0.316129032,34.5541401 C-0.0903225806,34.1528662 -1.1516129,33.1050955 6.57096774,24.366242 L7.42903226,25.1019108 C2.03225806,31.2101911 1.28709677,33.2165605 1.19677419,33.7070064 C2.16774194,33.5732484 5.87096774,31.2547771 12.5548387,25.1910828 L13.3225806,26.0159236 C10.1612903,28.8917197 7.31612903,31.2324841 5.10322581,32.7929936 C2.86774194,34.3535032 1.71612903,34.843949 1.03870968,34.843949 L1.03870968,34.843949 Z M17.2967742,22.2707006 L16.5064516,21.4681529 C16.8903226,21.089172 17.2741935,20.7101911 17.6806452,20.3312102 C24.3870968,13.7101911 29.8967742,7.22292994 31.0483871,4.57006369 L32.0870968,5.01592357 C30.8677419,7.82484076 25.4032258,14.2898089 18.4935484,21.111465 C18.0870968,21.5127389 17.6806452,21.8917197 17.2967742,22.2707006 L17.2967742,22.2707006 Z M23.5967742,9.16242038 L22.8741935,8.31528662 C25.1096774,6.46496815 28.1806452,4.10191083 30.1451613,3.27707006 L30.5741935,4.30254777 C29.1516129,4.88216561 26.6677419,6.62101911 23.5967742,9.16242038 L23.5967742,9.16242038 Z" id="Shape"></path>
                            </g>
                        </g>
                    </g>
                </g>
            </g>
        </g>
    </g>
</svg>