<?xml version="1.0" encoding="UTF-8" standalone="no"?>
<svg width="20px" height="14px" viewBox="0 0 20 14" version="1.1" xmlns="http://www.w3.org/2000/svg" xmlns:xlink="http://www.w3.org/1999/xlink" xmlns:sketch="http://www.bohemiancoding.com/sketch/ns">
    <!-- Generator: Sketch 3.5.1 (25234) - http://www.bohemiancoding.com/sketch -->
    <title>Shape</title>
    <desc>Created with Sketch.</desc>
    <defs></defs>
    <g id="Home" stroke="none" stroke-width="1" fill="none" fill-rule="evenodd" sketch:type="MSPage">
        <g id="Mobile-Portrait" sketch:type="MSArtboardGroup" transform="translate(-286.000000, -13.000000)" fill="#1ABC9C">
            <g id="top" sketch:type="MSLayerGroup">
                <g id="menu" transform="translate(286.000000, 13.000000)" sketch:type="MSShapeGroup">
                    <g id="Layer_1">
                        <path d="M1,2 L19,2 C19.55225,2 20,1.55225 20,1 C20,0.44775 19.55225,0 19,0 L1,0 C0.44775,0 0,0.44775 0,1 C0,1.55225 0.44775,2 1,2 L1,2 Z M19,6 L1,6 C0.44775,6 0,6.44775 0,7 C0,7.55225 0.44775,8 1,8 L19,8 C19.55225,8 20,7.55225 20,7 C20,6.44775 19.55225,6 19,6 L19,6 Z M19,12 L1,12 C0.44775,12 0,12.44775 0,13 C0,13.55225 0.44775,14 1,14 L19,14 C19.55225,14 20,13.55225 20,13 C20,12.44775 19.55225,12 19,12 L19,12 Z" id="Shape"></path>
                    </g>
                </g>
            </g>
        </g>
    </g>
</svg>