<?xml version="1.0" encoding="UTF-8" standalone="no"?>
<svg width="23px" height="16px" viewBox="0 0 23 16" version="1.1" xmlns="http://www.w3.org/2000/svg" xmlns:xlink="http://www.w3.org/1999/xlink" xmlns:sketch="http://www.bohemiancoding.com/sketch/ns">
    <!-- Generator: Sketch 3.4.4 (17249) - http://www.bohemiancoding.com/sketch -->
    <title>Shape</title>
    <desc>Created with Sketch.</desc>
    <defs></defs>
    <g id="Page-1" stroke="none" stroke-width="1" fill="none" fill-rule="evenodd" sketch:type="MSPage">
        <g id="Home" sketch:type="MSArtboardGroup" transform="translate(-127.000000, -13.000000)" fill="#16A085">
            <g id="1452621348_menu-alt" sketch:type="MSLayerGroup" transform="translate(127.000000, 13.000000)">
                <g id="Layer_1" sketch:type="MSShapeGroup">
                    <path d="M1.6,3.2 L20.8,3.2 C21.6832,3.2 22.4,2.4832 22.4,1.6 C22.4,0.7168 21.6832,0 20.8,0 L1.6,0 C0.7168,0 0,0.7168 0,1.6 C0,2.4832 0.7168,3.2 1.6,3.2 L1.6,3.2 Z M20.8,6.4 L1.6,6.4 C0.7168,6.4 0,7.1168 0,8 C0,8.8832 0.7168,9.6 1.6,9.6 L20.8,9.6 C21.6832,9.6 22.4,8.8832 22.4,8 C22.4,7.1168 21.6832,6.4 20.8,6.4 L20.8,6.4 Z M20.8,12.8 L1.6,12.8 C0.7168,12.8 0,13.5168 0,14.4 C0,15.2832 0.7168,16 1.6,16 L20.8,16 C21.6832,16 22.4,15.2832 22.4,14.4 C22.4,13.5168 21.6832,12.8 20.8,12.8 L20.8,12.8 Z" id="Shape"></path>
                </g>
            </g>
        </g>
    </g>
</svg>