<?xml version="1.0" encoding="UTF-8" standalone="no"?>
<svg width="108px" height="24px" viewBox="0 0 108 24" version="1.1" xmlns="http://www.w3.org/2000/svg" xmlns:xlink="http://www.w3.org/1999/xlink" xmlns:sketch="http://www.bohemiancoding.com/sketch/ns">
    <!-- Generator: Sketch 3.5.1 (25234) - http://www.bohemiancoding.com/sketch -->
    <title>logo small</title>
    <desc>Created with Sketch.</desc>
    <defs></defs>
    <g id="Home" stroke="none" stroke-width="1" fill="none" fill-rule="evenodd" sketch:type="MSPage">
        <g id="Desktop" sketch:type="MSArtboardGroup" transform="translate(-28.000000, -28.000000)">
            <g id="top" sketch:type="MSLayerGroup" transform="translate(27.000000, 28.000000)">
                <g id="logo-small" transform="translate(1.000000, 0.000000)">
                    <g id="icon" fill="#1ABC9C" sketch:type="MSShapeGroup">
                        <path d="M20.4260059,14.55825 C20.6976,14.10825 20.9397322,13.6275 20.9682038,13.30775 C21.1316059,12.836 19.0551613,5.17275 18.2324564,2.1795 C21.3809179,4.2845 23.4573625,7.893 23.4573625,11.99125 C23.4573625,18.485 18.2433499,23.75 11.8119916,23.75 C5.38112842,23.75 0.167610947,18.485 0.167610947,11.991 C0.167363368,5.49675 5.38088084,0.2325 11.8119916,0.2325 C13.6747756,0.2325 15.4348143,0.6735 16.9962947,1.4585 C17.3899453,2.90925 19.6072623,11.108 19.9444648,13.1405 C19.8538509,13.43375 19.6936674,13.76225 19.5191242,14.07125 L18.8152573,13.69375 C18.6964194,13.6295 18.5444059,13.6745 18.4802829,13.79625 L16.5256472,17.50875 C16.4612766,17.63025 16.5073263,17.78125 16.6283924,17.84625 L18.6580446,18.93625 C18.7768825,19.00025 18.928896,18.95525 18.9930189,18.83375 L20.9476547,15.12125 C21.0120253,14.99925 20.9659756,14.84825 20.8449095,14.78325 L20.4260059,14.55825 L20.4260059,14.55825 Z M11.8119916,15.805 C13.8980918,15.805 15.589056,14.0975 15.589056,11.991 C15.589056,9.88475 13.8980918,8.1775 11.8122392,8.1775 C9.72663411,8.1775 8.03591747,9.885 8.03591747,11.991 C8.03591747,14.09725 9.72688168,15.80475 11.8124867,15.80475 L11.8119916,15.805 Z M9.09976421,5.926 C9.29361853,6.12175 9.27480253,6.417 9.05916126,6.586 C9.05916126,6.586 8.22407747,7.223 7.80888758,7.64225 C7.39592589,8.05925 6.769056,8.89875 6.769056,8.89875 C6.60317811,9.11625 6.31202526,9.13475 6.11718063,8.93775 L5.96813811,8.78775 C5.77428379,8.59175 5.748288,8.25275 5.91119495,8.032 C5.91119495,8.032 6.52122947,7.17525 6.93419116,6.7585 C7.34938105,6.33925 8.20476632,5.7165 8.20476632,5.7165 C8.42263579,5.55325 8.75562947,5.579 8.95047411,5.7755 L9.09951663,5.9255 L9.09976421,5.926 Z M7.76358063,3.731 C7.95743495,3.92675 7.94357053,4.226 7.73139537,4.402 C7.73139537,4.402 6.58460968,5.3345 6.05281011,5.871 C5.52398147,6.40525 4.60595874,7.5575 4.60595874,7.5575 C4.43389137,7.77 4.13803453,7.785 3.94343747,7.5885 L3.79439495,7.4385 C3.60054063,7.24225 3.58147705,6.906 3.74933558,6.69225 C3.74933558,6.69225 4.64953263,5.52175 5.17786611,4.98775 C5.71016084,4.45075 6.87452463,3.537 6.87452463,3.537 C7.08942316,3.365 7.41969347,3.38375 7.61478568,3.5805 L7.76333305,3.7305 L7.76358063,3.731 Z" id="Shape"></path>
                        <ellipse id="Oval" cx="11.8122392" cy="11.991" rx="1.39733558" ry="1.411"></ellipse>
                    </g>
                    <text id="RemixCode" sketch:type="MSTextLayer" font-family="Montserrat" font-size="14" font-weight="normal" fill="#34495E">
                        <tspan x="26" y="17">RemixCode</tspan>
                    </text>
                </g>
            </g>
        </g>
    </g>
</svg>