<?xml version="1.0" encoding="UTF-8" standalone="no"?>
<svg width="20px" height="16px" viewBox="0 0 20 16" version="1.1" xmlns="http://www.w3.org/2000/svg" xmlns:xlink="http://www.w3.org/1999/xlink" xmlns:sketch="http://www.bohemiancoding.com/sketch/ns">
    <!-- Generator: Sketch 3.5.1 (25234) - http://www.bohemiancoding.com/sketch -->
    <title>social twitter</title>
    <desc>Created with Sketch.</desc>
    <defs></defs>
    <g id="Home" stroke="none" stroke-width="1" fill="none" fill-rule="evenodd" sketch:type="MSPage">
        <g id="Desktop-HD" sketch:type="MSArtboardGroup" transform="translate(-106.000000, -102.000000)" fill="#00ACED">
            <g id="top" sketch:type="MSLayerGroup" transform="translate(28.000000, 28.000000)">
                <g id="profile-small" transform="translate(0.000000, 52.000000)" sketch:type="MSShapeGroup">
                    <g id="social" transform="translate(78.000000, 22.000000)">
                        <g id="social-twitter">
                            <path d="M16.9504,2.4672 C17.8122667,1.93813333 18.3829333,1.216 18.6624,0.2976 C17.824,0.7424 16.9888,1.04746667 16.1546667,1.216 C15.4048,0.4096 14.4554667,8.8817842e-16 13.3173333,8.8817842e-16 C12.2048,8.8817842e-16 11.2650667,0.3904 10.4981333,1.14986667 C9.73546667,1.91466667 9.3504,2.84373333 9.3504,3.92853333 C9.3504,4.25813333 9.392,4.55253333 9.4752,4.80213333 C6.19413333,4.69013333 3.4784,3.32906667 1.33866667,0.709333333 C0.976,1.3504 0.794666667,2.0032 0.794666667,2.6784 C0.794666667,4.06613333 1.38026667,5.16586667 2.54933333,5.97333333 C1.88266667,5.9168 1.29493333,5.74826667 0.794666667,5.472 C0.794666667,6.46293333 1.08586667,7.29066667 1.66933333,8.0192 C2.25493333,8.74026667 3.00693333,9.2 3.92533333,9.39626667 C3.59253333,9.4816 3.2416,9.52213333 2.88106667,9.52213333 C2.54826667,9.52213333 2.31253333,9.4944 2.1728,9.4336 C2.41813333,10.2410667 2.88106667,10.896 3.54986667,11.3973333 C4.21653333,11.9008 4.98346667,12.1664 5.84533333,12.1898667 C4.42453333,13.3045333 2.8,13.856 0.962133333,13.856 C0.512,13.856 0.193066667,13.8496 0,13.8154667 C1.81013333,14.9909333 3.82506667,15.5744 6.0544,15.5744 C8.336,15.5744 10.352,14.9962667 12.1066667,13.84 C13.8613333,12.6901333 15.1562667,11.2714667 15.9882667,9.60106667 C16.8245333,7.9328 17.2384,6.19626667 17.2384,4.38293333 L17.2384,3.88373333 C18.0469333,3.27573333 18.7008,2.59093333 19.2010667,1.83466667 C18.4757333,2.1472 17.7258667,2.35946667 16.9504,2.4672 L16.9504,2.4672 Z" id="Shape"></path>
                        </g>
                    </g>
                </g>
            </g>
        </g>
    </g>
</svg>