<?xml version="1.0" encoding="UTF-8" standalone="no"?>
<svg width="26px" height="26px" viewBox="0 0 26 26" version="1.1" xmlns="http://www.w3.org/2000/svg" xmlns:xlink="http://www.w3.org/1999/xlink" xmlns:sketch="http://www.bohemiancoding.com/sketch/ns">
    <!-- Generator: Sketch 3.4.4 (17249) - http://www.bohemiancoding.com/sketch -->
    <title>Shape</title>
    <desc>Created with Sketch.</desc>
    <defs></defs>
    <g id="Page-1" stroke="none" stroke-width="1" fill="none" fill-rule="evenodd" sketch:type="MSPage">
        <g id="Home" sketch:type="MSArtboardGroup" transform="translate(-274.000000, -412.000000)" fill="#598DCA">
            <g id="profile" sketch:type="MSLayerGroup" transform="translate(222.000000, 156.000000)">
                <g id="social" transform="translate(52.000000, 256.000000)" sketch:type="MSShapeGroup">
                    <g id="twitter">
                        <g id="Layer_1">
                            <path d="M14.8057,7.92263333 C13.6708,8.3356 12.9536333,9.40073333 13.0351,10.5664 L13.0624,11.0162 L12.6082667,10.9611667 C10.9559667,10.7501333 9.5121,10.0342667 8.2862,8.83133333 L7.6869,8.23463333 L7.53263333,8.67533333 C7.2059,9.6577 7.41476667,10.6951 8.09553333,11.3927667 C8.45866667,11.7784333 8.37676667,11.8334667 7.7506,11.6038 C7.53263333,11.5305667 7.34196667,11.4755333 7.32376667,11.5028333 C7.2605,11.5674 7.47803333,12.4024333 7.6505,12.7330667 C7.88666667,13.1924 8.36766667,13.6417667 8.8946,13.9082667 L9.33963333,14.1193 L8.81313333,14.1284 C8.30483333,14.1284 8.28663333,14.1375 8.34123333,14.3307667 C8.5228,14.9274667 9.23996667,15.561 10.0390333,15.8366 L10.6019333,16.029 L10.1118333,16.3228 C9.38556667,16.7457333 8.5319,16.9840667 7.67823333,17.0018333 C7.26916667,17.0109333 6.93333333,17.0477667 6.93333333,17.0755 C6.93333333,17.1669333 8.04136667,17.6808667 8.68573333,17.8832333 C10.6197,18.4799333 12.9172333,18.2225333 14.6423333,17.2037667 C15.8682333,16.4783667 17.0937,15.0371 17.6661333,13.6413333 C17.9751,12.8981667 18.2836333,11.5392333 18.2836333,10.8879333 C18.2836333,10.4654333 18.3109333,10.4104 18.8192333,9.90556667 C19.1191,9.61176667 19.4003333,9.29066667 19.4549333,9.1988 C19.5459333,9.02416667 19.5364,9.02416667 19.0736,9.18016667 C18.3018333,9.45576667 18.1926333,9.41893333 18.5744,9.00596667 C18.8556333,8.71216667 19.1919,8.1796 19.1919,8.0236 C19.1919,7.9963 19.0558333,8.0418 18.9011333,8.12456667 C18.7377667,8.21643333 18.3746333,8.35423333 18.1020667,8.43656667 L17.6119667,8.593 L17.1669333,8.28966667 C16.9216667,8.12456667 16.5771667,7.94083333 16.3951667,7.8858 C15.9319333,7.75753333 15.2234333,7.77573333 14.8057,7.92263333 L14.8057,7.92263333 Z M13,26 C5.82053333,26 0,20.1794667 0,13 C0,5.8201 5.82053333,0 13,0 C20.1794667,0 26,5.8201 26,13 C26,20.1794667 20.1794667,26 13,26 L13,26 Z" id="Shape"></path>
                        </g>
                    </g>
                </g>
            </g>
        </g>
    </g>
</svg>