<?xml version="1.0" encoding="UTF-8" standalone="no"?>
<svg width="26px" height="26px" viewBox="0 0 26 26" version="1.1" xmlns="http://www.w3.org/2000/svg" xmlns:xlink="http://www.w3.org/1999/xlink" xmlns:sketch="http://www.bohemiancoding.com/sketch/ns">
    <!-- Generator: Sketch 3.4.4 (17249) - http://www.bohemiancoding.com/sketch -->
    <title>Shape</title>
    <desc>Created with Sketch.</desc>
    <defs></defs>
    <g id="Page-1" stroke="none" stroke-width="1" fill="none" fill-rule="evenodd" sketch:type="MSPage">
        <g id="Home" sketch:type="MSArtboardGroup" transform="translate(-374.000000, -412.000000)" fill="#CF3427">
            <g id="profile" sketch:type="MSLayerGroup" transform="translate(222.000000, 156.000000)">
                <g id="social" transform="translate(52.000000, 256.000000)" sketch:type="MSShapeGroup">
                    <g id="youtube" transform="translate(100.000000, 0.000000)">
                        <g id="Layer_1">
                            <path d="M17.1283667,16.1806667 C17.0079,16.1806667 16.9212333,16.2144667 16.8683667,16.2864 C16.8159333,16.354 16.7903667,16.4701333 16.7903667,16.6313333 L16.7903667,17.0196 L17.459,17.0196 L17.459,16.6313333 C17.459,16.4701333 17.4321333,16.354 17.3788333,16.2864 C17.3285667,16.2144667 17.2432,16.1806667 17.1283667,16.1806667 L17.1283667,16.1806667 Z M14.5205667,16.1672333 C14.6219667,16.1672333 14.7012667,16.2001667 14.7563,16.2669 C14.8096,16.3336333 14.8364667,16.4328667 14.8364667,16.5624333 L14.8364667,18.5488333 C14.8364667,18.6727667 14.8135,18.7598667 14.7701667,18.8136 C14.7268333,18.8686333 14.6592333,18.8955 14.5665,18.8955 C14.5023667,18.8955 14.4421333,18.8812 14.3840667,18.8539 C14.3255667,18.8270333 14.2653333,18.7798 14.2042333,18.7182667 L14.2042333,16.3215 C14.2558,16.2686333 14.3078,16.2292 14.3602333,16.2040667 C14.4126667,16.1785 14.4659667,16.1672333 14.5205667,16.1672333 L14.5205667,16.1672333 Z M16.7908,17.6184667 L16.7908,18.343 C16.7908,18.5458 16.8155,18.6862 16.8644667,18.7650667 C16.9156,18.8435 17.0001,18.8816333 17.121,18.8816333 C17.2462333,18.8816333 17.3337667,18.8487 17.3836,18.7824 C17.433,18.7161 17.4594333,18.5705 17.4594333,18.3434333 L17.4594333,18.1679333 L18.2372667,18.1679333 L18.2372667,18.3655333 C18.2372667,18.7603 18.1432333,19.0571333 17.9525667,19.2577667 C17.7640667,19.4566667 17.4806667,19.5554667 17.1041,19.5554667 C16.7656667,19.5554667 16.4983,19.4506 16.3037333,19.2387 C16.1096,19.0281 16.0108,18.7373333 16.0108,18.3659667 L16.0108,16.6387 C16.0108,16.3059 16.1187,16.0329 16.3323333,15.8231667 C16.5459667,15.613 16.8211333,15.5081333 17.1604333,15.5081333 C17.5066667,15.5081333 17.7727333,15.6056333 17.9590667,15.8002 C18.1449667,15.9943333 18.2372667,16.2738333 18.2372667,16.6387 L18.2372667,17.6197667 L16.7908,17.6197667 L16.7908,17.6184667 Z M15.4366333,19.2811667 C15.3192,19.4267667 15.1467333,19.4982667 14.9222667,19.4982667 C14.7736333,19.4982667 14.6423333,19.4714 14.5270667,19.4150667 C14.4113667,19.3591667 14.3021667,19.2733667 14.2038,19.1546333 L14.2038,19.4497333 L13.4394,19.4497333 L13.4394,14.2358667 L14.2038,14.2358667 L14.2038,15.9150333 C14.3065,15.7980333 14.4139667,15.7079 14.5279333,15.6476667 C14.6436333,15.5861333 14.7593333,15.5562333 14.8767667,15.5562333 C15.1168333,15.5562333 15.2992667,15.6381333 15.4249333,15.8010667 C15.5523333,15.9653 15.6147333,16.2053667 15.6147333,16.5204 L15.6147333,18.655 C15.6147333,18.9271333 15.5553667,19.1355667 15.4366333,19.2811667 L15.4366333,19.2811667 Z M12.1151333,19.4497333 L12.1151333,19.0268 C11.9743,19.1832333 11.83,19.3024 11.6779,19.383 C11.5266667,19.4657667 11.3806333,19.5052 11.2385,19.5052 C11.063,19.5052 10.933,19.4493 10.8428667,19.3336 C10.7557667,19.2183333 10.7107,19.0484667 10.7107,18.8183667 L10.7107,15.6021667 L11.4664333,15.6021667 L11.4664333,18.5527333 C11.4664333,18.6441667 11.4824667,18.7096 11.5128,18.7507667 C11.5461667,18.7919333 11.5977333,18.8118667 11.6679333,18.8118667 C11.7234,18.8118667 11.7944667,18.785 11.8794,18.7304 C11.9647667,18.6762333 12.0419,18.6077667 12.1142667,18.5245667 L12.1142667,15.6021667 L12.87,15.6021667 L12.87,19.4493 L12.1151333,19.4493 L12.1151333,19.4497333 Z M9.49693333,14.9933333 L9.49693333,19.4497333 L8.64413333,19.4497333 L8.64413333,14.9933333 L7.76273333,14.9933333 L7.76273333,14.2358667 L10.3783333,14.2358667 L10.3783333,14.9933333 L9.49693333,14.9933333 L9.49693333,14.9933333 Z M12.9974,12.5571333 C12.9974,12.5567 18.2320667,12.5649333 18.8534667,13.1854667 C19.4770333,13.8073 19.4839667,16.8748667 19.4839667,16.8926333 C19.4839667,16.8926333 19.4787667,19.9766667 18.8534667,20.6002333 C18.2320667,21.2199 12.9974,21.2333333 12.9974,21.2333333 C12.9974,21.2333333 7.76316667,21.2199 7.14046667,20.5998 C6.51733333,19.9779667 6.51603333,16.9156 6.51603333,16.8922 C6.51603333,16.8744333 6.51776667,13.8068667 7.14046667,13.1850333 C7.7636,12.5649333 12.9974,12.5567 12.9974,12.5571333 L12.9974,12.5571333 Z M17.1253333,10.9438333 L16.2734,10.9438333 L16.2734,10.4758333 C16.1182667,10.6478667 15.9544667,10.7804667 15.7837333,10.8697333 C15.6138667,10.9598667 15.4496333,11.0049333 15.2897333,11.0049333 C15.0912667,11.0049333 14.9443667,10.9416667 14.8447,10.8155667 C14.7454667,10.6894667 14.6952,10.5005333 14.6952,10.2474667 L14.6952,6.70626667 L15.5454,6.70626667 L15.5454,9.95496667 C15.5454,10.0550667 15.5649,10.1278667 15.6004333,10.1725 C15.6351,10.2175667 15.6940333,10.2401 15.7733333,10.2401 C15.8353,10.2401 15.9150333,10.2102 16.0108,10.1508333 C16.1061333,10.0914667 16.1941,10.0156333 16.2729667,9.92246667 L16.2729667,6.70626667 L17.1249,6.70626667 L17.1249,10.9438333 L17.1253333,10.9438333 Z M12.5003667,10.2214667 C12.5606,10.2851667 12.6472667,10.3163667 12.7603667,10.3163667 C12.8756333,10.3163667 12.9666333,10.2838667 13.0351,10.2197333 C13.1031333,10.1538667 13.1369333,10.0646 13.1369333,9.95193333 L13.1369333,7.64356667 C13.1369333,7.55083333 13.1022667,7.47586667 13.0325,7.41866667 C12.9631667,7.3619 12.8721667,7.33373333 12.7603667,7.33373333 C12.6559333,7.33373333 12.5718667,7.3619 12.5064333,7.41866667 C12.4423,7.47586667 12.4089333,7.55083333 12.4089333,7.64356667 L12.4089333,9.95193333 C12.4089333,10.0676333 12.4401333,10.1569 12.5003667,10.2214667 L12.5003667,10.2214667 Z M11.8768,6.8913 C12.1056,6.69673333 12.4145667,6.59923333 12.8006667,6.59923333 C13.1525333,6.59923333 13.442,6.70193333 13.6677667,6.90733333 C13.8918,7.1123 14.0044667,7.37663333 14.0044667,7.69946667 L14.0044667,9.88823333 C14.0044667,10.2505 13.8939667,10.5343333 13.6742667,10.7410333 C13.4519667,10.9473 13.1490667,11.0504333 12.7616667,11.0504333 C12.3898667,11.0504333 12.0913,10.9438333 11.8672667,10.7315 C11.6449667,10.5183 11.5327333,10.2318667 11.5327333,9.87176667 L11.5327333,7.67563333 C11.5323,7.34673333 11.6467,7.08543333 11.8768,6.8913 L11.8768,6.8913 Z M9.21353333,5.2 L8.24763333,5.2 L9.38903333,8.66796667 L9.38903333,10.9438333 L10.348,10.9438333 L10.348,8.5605 L11.4634,5.2 L10.4884,5.2 L9.89646667,7.4958 L9.83623333,7.4958 L9.21353333,5.2 L9.21353333,5.2 Z M13,26 C5.82053333,26 0,20.1794667 0,13 C0,5.8201 5.82053333,0 13,0 C20.1794667,0 26,5.8201 26,13 C26,20.1794667 20.1794667,26 13,26 L13,26 Z" id="Shape"></path>
                        </g>
                    </g>
                </g>
            </g>
        </g>
    </g>
</svg>