<?xml version="1.0" encoding="UTF-8" standalone="no"?>
<svg width="26px" height="16px" viewBox="0 0 26 16" version="1.1" xmlns="http://www.w3.org/2000/svg" xmlns:xlink="http://www.w3.org/1999/xlink" xmlns:sketch="http://www.bohemiancoding.com/sketch/ns">
    <!-- Generator: Sketch 3.5.1 (25234) - http://www.bohemiancoding.com/sketch -->
    <title>social youtube</title>
    <desc>Created with Sketch.</desc>
    <defs></defs>
    <g id="Home" stroke="none" stroke-width="1" fill="none" fill-rule="evenodd" sketch:type="MSPage">
        <g id="Desktop-HD" sketch:type="MSArtboardGroup" transform="translate(-277.000000, -102.000000)" fill="#BB0000">
            <g id="top" sketch:type="MSLayerGroup" transform="translate(28.000000, 28.000000)">
                <g id="profile-small" transform="translate(0.000000, 52.000000)" sketch:type="MSShapeGroup">
                    <g id="social" transform="translate(78.000000, 22.000000)">
                        <g id="social-youtube" transform="translate(171.000000, 0.000000)">
                            <path d="M24.9142857,4.11428571 C24.6857143,2.4 24.4571429,1.14285714 23.7714286,0.685714286 C23.0857143,0.114285714 17.1428571,0 12.5714286,0 C8,0 2.05714286,0.114285714 1.37142857,0.685714286 C0.685714286,1.14285714 0.457142857,2.4 0.228571429,4.11428571 C0,5.82857143 0,6.85714286 0,8 C0,9.14285714 0,10.1714286 0.228571429,11.8857143 C0.457142857,13.6 0.685714286,14.8571429 1.37142857,15.3142857 C2.05714286,15.8857143 8,16 12.5714286,16 C17.1428571,16 23.0857143,15.8857143 23.7714286,15.3142857 C24.4571429,14.8571429 24.6857143,13.6 24.9142857,11.8857143 C25.1428571,10.1714286 25.1428571,9.14285714 25.1428571,8 C25.1428571,6.85714286 25.1428571,5.82857143 24.9142857,4.11428571 L24.9142857,4.11428571 Z M10.2857143,12.1142857 L10.2857143,3.88571429 L17.1428571,8 L10.2857143,12.1142857 L10.2857143,12.1142857 Z" id="Shape"></path>
                        </g>
                    </g>
                </g>
            </g>
        </g>
    </g>
</svg>